<?xml version="1.0" standalone="no"?>
<!DOCTYPE svg PUBLIC "-//W3C//DTD SVG 20010904//EN"
 "http://www.w3.org/TR/2001/REC-SVG-20010904/DTD/svg10.dtd">
<svg version="1.0" xmlns="http://www.w3.org/2000/svg"
 width="188.000000pt" height="188.000000pt" viewBox="0 0 188.000000 188.000000"
 preserveAspectRatio="xMidYMid meet">
<metadata>
Created by potrace 1.14, written by Peter Selinger 2001-2017
</metadata>
<g transform="translate(0.000000,188.000000) scale(0.100000,-0.100000)"
fill="#000000" stroke="none">
<path d="M853 1723 c-5 -1 -28 -4 -53 -8 -45 -5 -70 -23 -114 -76 -16 -19 -20
-43 -23 -129 -1 -58 -5 -111 -8 -117 -2 -7 0 -13 5 -13 6 0 6 -9 0 -25 -5 -14
-6 -25 -1 -25 7 0 8 -26 1 -37 -1 -2 -2 -22 -2 -45 0 -24 -6 -53 -14 -64 -16
-26 -7 -39 14 -21 13 10 14 9 8 -2 -6 -8 2 -7 20 5 31 19 79 64 68 64 -3 0 0
7 7 16 9 11 14 57 15 158 3 154 5 171 21 187 10 10 200 15 335 10 34 -2 43
-48 42 -216 0 -88 -4 -169 -8 -180 -10 -31 -104 -94 -162 -110 -16 -4 -23 -10
-16 -12 6 -3 10 -8 7 -12 -2 -5 16 -8 40 -8 25 0 45 4 45 9 0 5 4 7 9 3 5 -3
12 -1 16 5 9 14 54 13 69 -2 15 -16 19 -68 5 -68 -5 0 -7 -4 -4 -10 3 -5 1
-10 -5 -10 -6 0 -9 -4 -6 -9 3 -4 -3 -16 -14 -26 -11 -10 -17 -21 -15 -25 3
-4 -2 -11 -11 -14 -9 -4 -14 -9 -11 -12 3 -4 1 -12 -6 -19 -26 -28 -46 -55
-41 -55 4 0 -1 -11 -10 -25 -9 -14 -14 -25 -10 -25 4 0 1 -7 -6 -15 -6 -8 -9
-18 -6 -23 8 -13 84 4 132 28 20 11 40 18 43 17 3 -2 25 16 47 40 23 24 39 43
35 43 -3 0 -1 4 5 8 6 4 28 36 50 72 84 140 144 190 225 190 54 0 59 -15 59
-196 0 -205 5 -197 -131 -198 -113 -1 -135 -13 -143 -79 -6 -43 -20 -39 146
-38 150 1 183 15 226 95 18 33 20 56 20 223 -1 210 -10 244 -76 285 -42 26
-53 27 -234 29 l-148 2 0 158 c0 88 0 161 0 164 0 3 -7 20 -16 38 -26 52 -71
85 -127 92 -44 6 -275 13 -294 8z"/>
<path d="M436 1263 c-1 -1 -24 -3 -51 -4 -57 -3 -105 -17 -105 -30 0 -5 -6 -9
-13 -9 -15 0 -60 -74 -50 -84 3 -3 2 -6 -4 -6 -6 0 -9 -27 -9 -65 1 -38 -3
-65 -9 -65 -7 0 -7 -3 0 -8 6 -4 10 -50 10 -112 -1 -58 3 -118 8 -135 11 -34
62 -97 71 -88 3 4 6 1 6 -5 0 -7 3 -11 8 -11 4 1 9 0 12 -1 23 -9 65 -11 195
-13 l150 -2 5 -170 c5 -177 8 -190 57 -240 12 -13 24 -20 27 -17 3 3 6 1 6 -5
0 -15 10 -16 219 -19 207 -3 231 1 275 50 38 43 44 77 46 241 1 188 6 234 25
255 42 46 -53 16 -97 -31 -26 -26 -32 -41 -29 -61 0 -5 -3 -8 -7 -8 -4 0 -8
-33 -7 -72 0 -40 -4 -79 -9 -85 -5 -8 -5 -13 0 -13 5 0 9 -13 9 -30 1 -16 -4
-30 -10 -30 -7 0 -7 -3 1 -8 14 -9 -2 -88 -19 -89 -6 -1 -86 -2 -177 -3 -147
-1 -166 0 -177 17 -8 9 -11 23 -9 30 3 7 2 13 -2 13 -4 0 -6 35 -4 77 1 43 3
83 3 88 0 6 -1 33 -2 60 -3 121 -5 116 70 168 38 26 78 47 89 47 30 0 33 11
10 32 -17 14 -23 16 -30 6 -6 -10 -8 -10 -8 1 0 11 -3 11 -15 1 -8 -7 -15 -9
-15 -5 0 4 -6 2 -13 -4 -8 -6 -17 -8 -20 -4 -4 3 -7 2 -7 -4 0 -10 -56 -11
-66 -1 -23 24 20 136 77 196 8 9 16 20 17 25 1 4 9 19 19 34 9 14 18 31 20 37
1 6 4 21 7 33 5 23 -7 26 -45 9 -9 -4 -20 -6 -25 -4 -5 1 -24 -6 -41 -15 -18
-10 -36 -18 -40 -18 -33 -5 -91 -59 -119 -111 -8 -16 -19 -28 -24 -28 -6 0
-10 -5 -10 -11 0 -13 -78 -128 -107 -157 -47 -47 -131 -69 -160 -42 -18 16
-20 31 -18 186 1 93 3 172 4 176 3 14 49 21 134 21 48 -1 87 3 87 8 0 5 6 9
14 9 27 0 44 99 17 101 -44 2 -143 4 -145 2z"/>
</g>
</svg>
